# xmcd
#
# Track frame offsets:
#	150
#	10468
#	19080
#	30331
#	40933
#	49829
#	59908
#	70189
#	80948
#	92387
#
# Disc length: 1342 seconds
#
# Revision: 0
# Processed by: cddbd v1.5.1PL0 Copyright (c) Steve Scherf et al.
# Submitted via: dBpowerAMP V4.0
#
DISCID=81053c0a
DTITLE=Conway Twitty - It's Only Make Believe
DYEAR=1963
DGENRE=
TTITLE0=The Story Of My Life
TTITLE1=Beachcomer
TTITLE2=Heavenly
TTITLE3=Hey Miss Ruby
TTITLE4=A Huggin And A Kissin
TTITLE5=It's Only Make Believe
TTITLE6=I'll Try
TTITLE7=Judge Of Hearts
TTITLE8=Platinum High School
TTITLE9=She's Mine
EXTD=
EXTT0=
EXTT1=
EXTT2=
EXTT3=
EXTT4=
EXTT5=
EXTT6=
EXTT7=
EXTT8=
EXTT9=
PLAYORDER=
